<?xml version="1.0" standalone="no"?>
<!DOCTYPE svg PUBLIC "-//W3C//DTD SVG 20010904//EN"
 "http://www.w3.org/TR/2001/REC-SVG-20010904/DTD/svg10.dtd">
<svg version="1.0" xmlns="http://www.w3.org/2000/svg"
 width="512.000000pt" height="512.000000pt" viewBox="0 0 512.000000 512.000000"
 preserveAspectRatio="xMidYMid meet">
<metadata>
Created by potrace 1.15, written by Peter Selinger 2001-2017
</metadata>
<g transform="translate(0.000000,512.000000) scale(0.100000,-0.100000)"
fill="#000000" stroke="none">
<path d="M2803 5110 c-134 -27 -227 -139 -240 -289 -11 -132 34 -235 126 -285
72 -39 195 -56 406 -56 106 0 195 -6 235 -14 306 -65 639 -328 819 -645 115
-203 157 -356 171 -621 15 -266 66 -385 195 -453 53 -28 179 -30 247 -4 101
39 164 147 189 322 22 157 -5 492 -57 697 -164 654 -616 1092 -1312 1273 -243
64 -641 102 -779 75z"/>
<path d="M873 4960 c-128 -26 -261 -112 -420 -272 -196 -199 -291 -367 -355
-628 -8 -35 -13 -118 -13 -230 0 -145 4 -193 23 -284 71 -330 181 -575 425
-941 82 -123 92 -138 239 -335 238 -318 566 -680 895 -986 340 -316 730 -597
1055 -760 102 -51 299 -136 358 -154 280 -87 381 -105 595 -105 165 0 188 3
280 28 126 35 297 118 400 195 213 159 418 439 457 625 16 75 2 128 -58 225
-84 134 -423 447 -645 594 -275 183 -595 287 -759 248 -47 -11 -63 -23 -168
-130 -141 -142 -180 -165 -277 -164 -201 3 -462 136 -684 349 -119 115 -200
212 -310 375 -174 256 -250 443 -221 548 14 55 42 87 115 133 258 163 328 517
152 769 -70 100 -305 409 -392 515 -247 300 -476 427 -692 385z m225 -366 c68
-33 200 -161 290 -280 91 -122 261 -379 303 -461 83 -158 58 -251 -96 -367
-81 -60 -125 -114 -157 -193 -20 -51 -23 -75 -23 -193 0 -114 4 -147 23 -210
53 -168 180 -386 350 -600 90 -114 345 -372 457 -462 228 -186 491 -308 660
-308 109 0 234 42 325 108 19 14 80 70 136 124 100 97 101 98 151 98 111 0
281 -85 516 -258 193 -143 387 -320 422 -386 23 -42 19 -57 -47 -175 -54 -96
-202 -247 -313 -319 -88 -57 -206 -107 -294 -124 -204 -38 -626 66 -959 236
-587 301 -1199 845 -1753 1557 -358 461 -530 771 -620 1117 -86 334 -76 520
40 750 74 146 271 334 390 373 46 15 139 3 199 -27z"/>
<path d="M2615 4147 c-59 -20 -97 -42 -129 -74 -96 -95 -113 -310 -32 -416 72
-94 153 -123 386 -136 85 -5 170 -15 189 -22 109 -39 191 -114 249 -228 50
-95 71 -190 82 -357 9 -149 27 -205 87 -266 57 -59 122 -82 228 -83 81 0 95 3
143 29 66 37 116 92 151 165 25 53 26 63 24 201 -8 656 -333 1068 -924 1169
-158 27 -398 37 -454 18z"/>
</g>
</svg>
